# xmcd
#
# Track frame offsets: 
#        150
#        31461
#        49038
#        71028
#        99295
#        115039
#        135939
#        156279
#        179252
#        195199
#
# Disc length: 2853 seconds
#
# Revision: 0
# Processed by: cddbd v1.5.2PL0 Copyright (c) Steve Scherf et al.
# Submitted via: ExactAudioCopy v1.0b3
#
DISCID=780b230a
DTITLE=Various Artist - Don Xuan Trong Tinh yeu
DYEAR=2006
DGENRE=
TTITLE0=My Tam - Don Xuan
TTITLE1=Trio 666 - Li xi nhe
TTITLE2=Duy Manh - Don Xuan trong tinh yeu
TTITLE3=Xuan Phu - Mua Xuan trong doi mat em
TTITLE4=nhom MTV - Sac Xuan
TTITLE5=Hong Ngoc - Tinh em mua Xuan
TTITLE6=Phan Dinh Tung - Hanh phuc Xuan ngoi
TTITLE7=nhom 5 Dong Ke - Xuan Ha Noi
TTITLE8=Nhu Y - Ta yeu Xuan
TTITLE9=nhom May Trang - Xuan va tuoi tre
EXTD=
EXTT0=
EXTT1=
EXTT2=
EXTT3=
EXTT4=
EXTT5=
EXTT6=
EXTT7=
EXTT8=
EXTT9=
PLAYORDER=
